<svg id="visual" viewBox="0 0 900 150" width="900" height="150" xmlns="http://www.w3.org/2000/svg" xmlns:xlink="http://www.w3.org/1999/xlink" version="1.1"><path d="M0 102L21.5 95.3C43 88.7 86 75.3 128.8 69C171.7 62.7 214.3 63.3 257.2 69.2C300 75 343 86 385.8 88.8C428.7 91.7 471.3 86.3 514.2 82C557 77.7 600 74.3 642.8 81.2C685.7 88 728.3 105 771.2 101.8C814 98.7 857 75.3 878.5 63.7L900 52L900 0L878.5 0C857 0 814 0 771.2 0C728.3 0 685.7 0 642.8 0C600 0 557 0 514.2 0C471.3 0 428.7 0 385.8 0C343 0 300 0 257.2 0C214.3 0 171.7 0 128.8 0C86 0 43 0 21.5 0L0 0Z" fill="#c6ccc9"></path><path d="M0 82L21.5 74.8C43 67.7 86 53.3 128.8 45.5C171.7 37.7 214.3 36.3 257.2 34.5C300 32.7 343 30.3 385.8 38.8C428.7 47.3 471.3 66.7 514.2 76.8C557 87 600 88 642.8 80.2C685.7 72.3 728.3 55.7 771.2 53.2C814 50.7 857 62.3 878.5 68.2L900 74L900 0L878.5 0C857 0 814 0 771.2 0C728.3 0 685.7 0 642.8 0C600 0 557 0 514.2 0C471.3 0 428.7 0 385.8 0C343 0 300 0 257.2 0C214.3 0 171.7 0 128.8 0C86 0 43 0 21.5 0L0 0Z" fill="#99a59e"></path><path d="M0 20L21.5 21.5C43 23 86 26 128.8 26.5C171.7 27 214.3 25 257.2 24.8C300 24.7 343 26.3 385.8 29.5C428.7 32.7 471.3 37.3 514.2 37.8C557 38.3 600 34.7 642.8 35.7C685.7 36.7 728.3 42.3 771.2 43.7C814 45 857 42 878.5 40.5L900 39L900 0L878.5 0C857 0 814 0 771.2 0C728.3 0 685.7 0 642.8 0C600 0 557 0 514.2 0C471.3 0 428.7 0 385.8 0C343 0 300 0 257.2 0C214.3 0 171.7 0 128.8 0C86 0 43 0 21.5 0L0 0Z" fill="#6e7f75"></path></svg>